<svg xmlns="http://www.w3.org/2000/svg" width="1200" height="520" viewBox="0 0 1200 520" role="img" aria-labelledby="title desc">
  <title id="title">La anatomía política de España</title>
  <desc id="desc">Transición, sistema electoral, pactos y fragmentación parlamentaria</desc>
  <rect x="0" y="0" width="1200" height="520" fill="#f5f1e8"/>
  <rect x="42" y="42" width="1116" height="436" fill="#ffffff" stroke="#d6cbb8" stroke-width="3"/>
  <text x="88" y="118" font-family="Georgia, serif" font-size="46" fill="#1f2933">La anatomía política de España</text>
  <text x="88" y="162" font-family="Arial, sans-serif" font-size="23" fill="#56616b">Transición, sistema electoral, pactos y fragmentación parlamentaria</text>
  <line x1="120" y1="300" x2="1080" y2="300" stroke="#35435f" stroke-width="7" stroke-linecap="round"/>
  <circle cx="120.0" cy="300" r="38" fill="#ffffff" stroke="#35435f" stroke-width="5"/><text x="120.0" y="306" text-anchor="middle" font-family="Georgia, serif" font-size="22" fill="#1f2933">1975</text><text x="120.0" y="370" text-anchor="middle" font-family="Arial, sans-serif" font-size="18" fill="#46505a">vacío de poder</text><circle cx="360.0" cy="300" r="30" fill="#ffffff" stroke="#35435f" stroke-width="5"/><text x="360.0" y="306" text-anchor="middle" font-family="Georgia, serif" font-size="22" fill="#1f2933">1978</text><text x="360.0" y="370" text-anchor="middle" font-family="Arial, sans-serif" font-size="18" fill="#46505a">Constitución</text><circle cx="600.0" cy="300" r="30" fill="#ffffff" stroke="#35435f" stroke-width="5"/><text x="600.0" y="306" text-anchor="middle" font-family="Georgia, serif" font-size="22" fill="#1f2933">1982</text><text x="600.0" y="370" text-anchor="middle" font-family="Arial, sans-serif" font-size="18" fill="#46505a">alternancia</text><circle cx="840.0" cy="300" r="30" fill="#ffffff" stroke="#35435f" stroke-width="5"/><text x="840.0" y="306" text-anchor="middle" font-family="Georgia, serif" font-size="22" fill="#1f2933">2015</text><text x="840.0" y="370" text-anchor="middle" font-family="Arial, sans-serif" font-size="18" fill="#46505a">fragmentación</text><circle cx="1080.0" cy="300" r="38" fill="#ffffff" stroke="#35435f" stroke-width="5"/><text x="1080.0" y="306" text-anchor="middle" font-family="Georgia, serif" font-size="22" fill="#1f2933">2024</text><text x="1080.0" y="370" text-anchor="middle" font-family="Arial, sans-serif" font-size="18" fill="#46505a">pactos singulares</text>
  <path d="M92 414 C270 374, 430 452, 600 410 C780 366, 942 414, 1108 382" fill="none" stroke="#d9d0c0" stroke-width="4"/>
</svg>