<svg xmlns="http://www.w3.org/2000/svg" viewBox="0 0 1200 630" role="img" aria-label="Portada abstracta de parlamento y sistema electoral">
  <defs><linearGradient id="bg" x1="0" y1="0" x2="1" y2="1"><stop stop-color="#1a130d"/><stop offset="1" stop-color="#151b23"/></linearGradient><linearGradient id="r" x1="0" x2="1"><stop stop-color="#b73a32"/><stop offset=".5" stop-color="#f0d07a"/><stop offset="1" stop-color="#7c61ff"/></linearGradient><filter id="b"><feGaussianBlur stdDeviation="30"/></filter></defs>
  <rect width="1200" height="630" fill="url(#bg)"/>
  <g filter="url(#b)" opacity=".55"><circle cx="210" cy="130" r="220" fill="#b73a32"/><circle cx="970" cy="520" r="260" fill="#7c61ff"/><circle cx="590" cy="100" r="180" fill="#f0d07a" opacity=".55"/></g>
  <g transform="translate(600 480)" fill="none" stroke-linecap="round"><path d="M-430 0A430 430 0 0 1 430 0" stroke="#fff" stroke-opacity=".14" stroke-width="34"/><path d="M-348 0A348 348 0 0 1 348 0" stroke="#fff" stroke-opacity=".12" stroke-width="28"/><path d="M-266 0A266 266 0 0 1 266 0" stroke="#fff" stroke-opacity=".1" stroke-width="22"/><path d="M-430 0A430 430 0 0 1 430 0" stroke="url(#r)" stroke-opacity=".85" stroke-width="5"/></g>
  <g fill="#f0d07a" opacity=".78"><circle cx="256" cy="470" r="7"/><circle cx="344" cy="372" r="7"/><circle cx="470" cy="306" r="7"/><circle cx="600" cy="285" r="7"/><circle cx="730" cy="306" r="7"/><circle cx="856" cy="372" r="7"/><circle cx="944" cy="470" r="7"/></g>
  <g stroke="#fff" stroke-opacity=".22" stroke-width="2" fill="none"><path d="M256 470L470 306L600 285L730 306L944 470"/><path d="M344 372L856 372" stroke-dasharray="10 14"/></g>
  <g transform="translate(190 120)" fill="none" stroke="#fff" stroke-opacity=".13" stroke-width="3"><path d="M0 0h245v150H0zM0 50h245M0 100h245M61 0v150M122 0v150M183 0v150"/><path d="M61 122c46-64 92-23 122-82" stroke="url(#r)" stroke-opacity=".78" stroke-width="6" stroke-linecap="round"/></g>
</svg>
