<svg xmlns="http://www.w3.org/2000/svg" viewBox="0 0 1200 630" role="img" aria-labelledby="t d">
  <title id="t">Portada abstracta sobre Israel, Palestina y Oriente Medio</title>
  <desc id="d">Geografía simbólica, costa mediterránea, rutas históricas y capas de conflicto sin texto visible.</desc>
  <defs>
    <linearGradient id="bg" x1="0" x2="1" y1="0" y2="1"><stop stop-color="#09141c"/><stop offset="0.52" stop-color="#14222a"/><stop offset="1" stop-color="#2a2115"/></linearGradient>
    <linearGradient id="coast" x1="0" x2="1"><stop stop-color="#5cc8ff"/><stop offset="0.55" stop-color="#f0e8d0"/><stop offset="1" stop-color="#d4af37"/></linearGradient>
    <radialGradient id="sea" cx="50%" cy="50%" r="50%"><stop stop-color="#3eb8ff" stop-opacity="0.55"/><stop offset="1" stop-color="#3eb8ff" stop-opacity="0"/></radialGradient>
    <radialGradient id="desert" cx="50%" cy="50%" r="50%"><stop stop-color="#d4af37" stop-opacity="0.48"/><stop offset="1" stop-color="#d4af37" stop-opacity="0"/></radialGradient>
    <filter id="blur"><feGaussianBlur stdDeviation="34"/></filter>
    <pattern id="grain" width="80" height="80" patternUnits="userSpaceOnUse"><path d="M0 40H80M40 0V80" stroke="#fff" stroke-opacity="0.035"/></pattern>
  </defs>
  <rect width="1200" height="630" fill="url(#bg)"/>
  <rect width="1200" height="630" fill="url(#grain)"/>
  <g filter="url(#blur)"><circle cx="185" cy="290" r="280" fill="url(#sea)"/><circle cx="980" cy="350" r="310" fill="url(#desert)"/><circle cx="610" cy="120" r="180" fill="#ffffff" opacity="0.16"/></g>
  <g fill="none" stroke-linecap="round" stroke-linejoin="round">
    <path d="M470 86C423 164 427 226 392 286C354 351 390 409 358 473C342 506 329 532 318 568" stroke="#5cc8ff" stroke-opacity="0.42" stroke-width="26"/>
    <path d="M520 80C573 146 561 218 612 270C678 337 646 421 719 492C754 526 798 551 850 570" stroke="#d4af37" stroke-opacity="0.42" stroke-width="26"/>
    <path d="M470 86C423 164 427 226 392 286C354 351 390 409 358 473C342 506 329 532 318 568" stroke="url(#coast)" stroke-width="5"/>
    <path d="M520 80C573 146 561 218 612 270C678 337 646 421 719 492C754 526 798 551 850 570" stroke="url(#coast)" stroke-width="5"/>
    <path d="M398 190C520 246 626 238 750 185M370 400C525 340 664 372 822 455" stroke="#ffffff" stroke-opacity="0.16" stroke-width="3" stroke-dasharray="10 14"/>
    <path d="M585 165l95 165-190 0zM585 495l95-165-190 0z" stroke="#ffffff" stroke-opacity="0.22" stroke-width="4"/>
  </g>
  <g fill="#f5f1df" opacity="0.86"><circle cx="392" cy="286" r="7"/><circle cx="612" cy="270" r="7"/><circle cx="719" cy="492" r="7"/><circle cx="520" cy="80" r="6"/></g>
  <g stroke="#f5f1df" stroke-opacity="0.2" stroke-width="2"><path d="M165 512C242 487 302 487 362 508C456 540 530 517 606 482C702 438 790 431 905 485C970 516 1033 522 1090 503" fill="none"/></g>
</svg>
