<svg xmlns="http://www.w3.org/2000/svg" viewBox="0 0 1200 630" role="img" aria-label="Portada abstracta de hoja de cálculo y análisis de datos">
  <defs>
    <linearGradient id="bg" x1="0" y1="0" x2="1" y2="1"><stop stop-color="#07120d"/><stop offset="1" stop-color="#203322"/></linearGradient>
    <linearGradient id="g" x1="0" x2="1"><stop stop-color="#217346"/><stop offset="1" stop-color="#9be7b2"/></linearGradient>
    <filter id="b"><feGaussianBlur stdDeviation="34"/></filter>
  </defs>
  <rect width="1200" height="630" fill="url(#bg)"/>
  <g filter="url(#b)" opacity=".5"><circle cx="170" cy="150" r="220" fill="#217346"/><circle cx="980" cy="510" r="250" fill="#72d68b"/></g>
  <rect x="205" y="105" width="790" height="420" rx="22" fill="#fff" fill-opacity=".07" stroke="#fff" stroke-opacity=".18"/>
  <g stroke="#fff" stroke-opacity=".13" stroke-width="2"><path d="M205 175H995M205 245H995M205 315H995M205 385H995M205 455H995"/><path d="M300 105V525M395 105V525M490 105V525M585 105V525M680 105V525M775 105V525M870 105V525M965 105V525"/></g>
  <g fill="#48c97a" fill-opacity=".28"><rect x="302" y="177" width="92" height="68"/><rect x="492" y="317" width="93" height="68"/><rect x="777" y="247" width="93" height="68"/><rect x="872" y="387" width="93" height="68"/></g>
  <path d="M275 445C360 390 445 410 528 340C612 270 698 288 785 225C860 172 915 178 960 150" fill="none" stroke="url(#g)" stroke-width="10" stroke-linecap="round"/>
  <g fill="#d7ffe5"><circle cx="275" cy="445" r="9"/><circle cx="528" cy="340" r="9"/><circle cx="785" cy="225" r="9"/><circle cx="960" cy="150" r="9"/></g>
  <g transform="translate(770 360)" stroke="#d7ffe5" stroke-opacity=".65" stroke-width="18" stroke-linecap="round"><path d="M0 110V18M54 110V62M108 110V0M162 110V38M216 110V74"/></g>
</svg>
