<svg xmlns="http://www.w3.org/2000/svg" viewBox="0 0 1200 630" role="img" aria-labelledby="t d">
  <title id="t">Portada abstracta sobre la guerra de Ucrania</title>
  <desc id="d">Composición sin texto con mapa estratégico, líneas de frente y contraste azul y ámbar.</desc>
  <defs>
    <linearGradient id="bg" x1="0" x2="1" y1="0" y2="1"><stop stop-color="#0b1018"/><stop offset="0.56" stop-color="#141b24"/><stop offset="1" stop-color="#221b13"/></linearGradient>
    <linearGradient id="line" x1="0" x2="1"><stop stop-color="#4f8cff"/><stop offset="0.5" stop-color="#e8e1b2"/><stop offset="1" stop-color="#f5c84b"/></linearGradient>
    <radialGradient id="blue" cx="50%" cy="50%" r="50%"><stop stop-color="#2f78ff" stop-opacity="0.75"/><stop offset="1" stop-color="#2f78ff" stop-opacity="0"/></radialGradient>
    <radialGradient id="amber" cx="50%" cy="50%" r="50%"><stop stop-color="#f5c84b" stop-opacity="0.72"/><stop offset="1" stop-color="#f5c84b" stop-opacity="0"/></radialGradient>
    <filter id="blur"><feGaussianBlur stdDeviation="28"/></filter>
    <pattern id="grid" width="60" height="60" patternUnits="userSpaceOnUse"><path d="M60 0H0V60" fill="none" stroke="#ffffff" stroke-opacity="0.055" stroke-width="1"/></pattern>
  </defs>
  <rect width="1200" height="630" fill="url(#bg)"/>
  <rect width="1200" height="630" fill="url(#grid)"/>
  <g filter="url(#blur)" opacity="0.9"><circle cx="215" cy="170" r="205" fill="url(#blue)"/><circle cx="1010" cy="160" r="225" fill="url(#amber)"/><circle cx="640" cy="560" r="190" fill="#1f6f54" opacity="0.28"/></g>
  <g fill="none" stroke-linecap="round" stroke-linejoin="round">
    <path d="M120 470C220 420 305 435 382 395C464 352 504 284 594 291C701 300 739 214 835 201C920 190 984 232 1080 205" stroke="#ffffff" stroke-opacity="0.1" stroke-width="54"/>
    <path d="M120 470C220 420 305 435 382 395C464 352 504 284 594 291C701 300 739 214 835 201C920 190 984 232 1080 205" stroke="url(#line)" stroke-width="9"/>
    <path d="M167 230C315 270 439 184 560 231C672 275 758 358 909 318C990 296 1044 334 1114 374" stroke="#ffffff" stroke-opacity="0.18" stroke-width="2" stroke-dasharray="10 16"/>
    <path d="M80 536C252 487 410 529 561 471C750 398 912 444 1120 391" stroke="#ffffff" stroke-opacity="0.12" stroke-width="3"/>
  </g>
  <g fill="#f4f7ff" opacity="0.92"><circle cx="382" cy="395" r="8"/><circle cx="594" cy="291" r="10"/><circle cx="835" cy="201" r="8"/><circle cx="909" cy="318" r="6"/></g>
  <g opacity="0.18" stroke="#fff" stroke-width="1.5" fill="none"><path d="M486 126l42 20 23 46-20 56 35 58-45 54-65-6-39 43-69-14-18-65-55-24 10-70 54-42 30-66z"/><path d="M713 119l62 18 31 52 58 4 45 61-28 67 17 61-47 52-73-6-48 38-62-22-31-63-51-31 8-67-31-54 41-57z"/></g>
</svg>
